<?xml version="1.0" encoding="UTF-8" standalone="no"?>
<svg
   xmlns:dc="http://purl.org/dc/elements/1.1/"
   xmlns:cc="http://creativecommons.org/ns#"
   xmlns:rdf="http://www.w3.org/1999/02/22-rdf-syntax-ns#"
   xmlns:svg="http://www.w3.org/2000/svg"
   xmlns="http://www.w3.org/2000/svg"
   xmlns:sodipodi="http://sodipodi.sourceforge.net/DTD/sodipodi-0.dtd"
   xmlns:inkscape="http://www.inkscape.org/namespaces/inkscape"
   sodipodi:docname="media.loop.web.logo.svg"
   inkscape:version="1.0 (4035a4fb49, 2020-05-01)"
   id="svg980"
   version="1.1"
   viewBox="0 0 264.58334 120.57233"
   height="120.57233mm"
   width="264.58334mm">
  <defs
     id="defs974" />
  <sodipodi:namedview
     fit-margin-bottom="0"
     fit-margin-right="0"
     fit-margin-left="0"
     fit-margin-top="0"
     inkscape:window-maximized="0"
     inkscape:window-y="0"
     inkscape:window-x="0"
     inkscape:window-height="729"
     inkscape:window-width="1350"
     showborder="false"
     showgrid="false"
     inkscape:document-rotation="0"
     inkscape:current-layer="layer1"
     inkscape:document-units="px"
     inkscape:cy="417.1256"
     inkscape:cx="604.01141"
     inkscape:zoom="0.49497475"
     inkscape:pageshadow="2"
     inkscape:pageopacity="0.0"
     borderopacity="1.0"
     bordercolor="#666666"
     pagecolor="#ffffff"
     id="base"
     inkscape:snap-global="false" />
  <metadata
     id="metadata977">
    <rdf:RDF>
      <cc:Work
         rdf:about="">
        <dc:format>image/svg+xml</dc:format>
        <dc:type
           rdf:resource="http://purl.org/dc/dcmitype/StillImage" />
        <dc:title></dc:title>
      </cc:Work>
    </rdf:RDF>
  </metadata>
  <g
     transform="translate(-38.76083,-84.573921)"
     id="layer1"
     inkscape:groupmode="layer"
     inkscape:label="Layer 1">
    <path
       id="path957"
       d="M 90.295892,204.74829 C 75.96354,202.98863 60.322741,194.09666 51.872151,182.90393 c -14.63101,-19.37861 -17.22124,-44.43302 -6.74028,-65.19569 7.73717,-15.3273 18.79391,-24.823198 35.383209,-30.388438 13.361302,-4.4823 28.35789,-3.45653 42.79218,2.92698 9.51705,4.20891 23.17745,14.333428 35.67096,26.437888 l 12.38497,11.99928 8.70633,-8.78421 c 24.58359,-24.803489 43.3185,-35.057698 64.26021,-35.171688 32.74282,-0.17837 59.01443,26.595468 59.01443,60.142178 0,27.68945 -17.46676,50.71909 -44.41571,58.56148 -8.89584,2.58876 -22.36541,2.20398 -32.14622,-0.91832 -16.20427,-5.17288 -30.51765,-15.93894 -53.95052,-40.57979 -26.85442,-28.23882 -40.47888,-41.37319 -48.44136,-46.69877 -18.69375,-12.50316 -37.316779,-12.27394 -51.255518,0.63087 -9.193681,8.51173 -12.649901,16.43636 -12.649901,29.00453 0,12.34171 3.37426,20.27386 12.15822,28.58139 6.420729,6.07244 12.053449,8.79541 20.738349,10.02536 13.93052,1.97282 27.69196,-4.4188 46.896,-21.78119 4.08518,-3.69341 5.8318,-4.63745 8.58012,-4.63745 7.09167,0 11.1543,4.18513 11.1543,11.49053 0,3.17534 -0.79089,4.35852 -6.72786,10.06468 -7.31204,7.02784 -21.08863,16.67978 -29.44937,20.6324 -10.09306,4.77163 -22.67619,6.83598 -33.538798,5.50234 z M 255.56676,182.18933 c 5.49246,-1.63801 11.17577,-5.35419 15.88051,-10.38393 7.35093,-7.85878 10.4247,-15.80071 10.4247,-26.93517 0,-11.82817 -3.91688,-20.99167 -12.32867,-28.84264 -5.85567,-5.46526 -12.27784,-8.62895 -19.57481,-9.64294 -16.56914,-2.30242 -32.21743,5.85048 -54.6418,28.46888 l -10.02503,10.11174 12.46266,12.20565 c 12.78953,12.52575 20.97453,18.78831 29.89098,22.8704 8.69986,3.98295 19.08007,4.78177 27.91146,2.14801 z"
       style="fill:#7814ff;fill-opacity:1;stroke-width:0.975053"
       inkscape:export-xdpi="96"
       inkscape:export-ydpi="96" />
  </g>
</svg>
