<?xml version="1.0" encoding="UTF-8" standalone="no"?>
<svg
   xmlns:dc="http://purl.org/dc/elements/1.1/"
   xmlns:cc="http://creativecommons.org/ns#"
   xmlns:rdf="http://www.w3.org/1999/02/22-rdf-syntax-ns#"
   xmlns:svg="http://www.w3.org/2000/svg"
   xmlns="http://www.w3.org/2000/svg"
   xmlns:sodipodi="http://sodipodi.sourceforge.net/DTD/sodipodi-0.dtd"
   xmlns:inkscape="http://www.inkscape.org/namespaces/inkscape"
   width="1000mm"
   height="455.70599mm"
   viewBox="0 0 1000 455.70599"
   version="1.1"
   id="svg980"
   inkscape:version="1.0 (4035a4fb49, 2020-05-01)"
   sodipodi:docname="loop.logo.svg">
  <defs
     id="defs974" />
  <sodipodi:namedview
     inkscape:snap-global="false"
     id="base"
     pagecolor="#ffffff"
     bordercolor="#666666"
     borderopacity="1.0"
     inkscape:pageopacity="0.0"
     inkscape:pageshadow="2"
     inkscape:zoom="0.35"
     inkscape:cx="247.07"
     inkscape:cy="-201.09111"
     inkscape:document-units="px"
     inkscape:current-layer="layer1"
     inkscape:document-rotation="0"
     showgrid="false"
     showborder="false"
     inkscape:window-width="1350"
     inkscape:window-height="729"
     inkscape:window-x="0"
     inkscape:window-y="0"
     inkscape:window-maximized="0" />
  <metadata
     id="metadata977">
    <rdf:RDF>
      <cc:Work
         rdf:about="">
        <dc:format>image/svg+xml</dc:format>
        <dc:type
           rdf:resource="http://purl.org/dc/dcmitype/StillImage" />
        <dc:title></dc:title>
      </cc:Work>
    </rdf:RDF>
  </metadata>
  <g
     inkscape:label="Layer 1"
     inkscape:groupmode="layer"
     id="layer1">
    <path
       id="path957"
       d="M 51.535061,120.17437 C 37.202711,118.41471 21.561911,109.52274 13.111321,98.330011 -1.519689,78.951403 -4.109919,53.89699 6.371041,33.134322 14.108211,17.807021 25.164951,8.3111215 41.754251,2.7458815 c 13.3613,-4.4823 28.35789,-3.45653003 42.792179,2.92698 9.517056,4.20891 23.17745,14.3334295 35.67096,26.4378885 l 12.38497,11.999281 8.70633,-8.784215 c 24.58359,-24.803485 43.3185,-35.05769453 64.26021,-35.17168453 32.74282,-0.17837 59.01443,26.59546553 59.01443,60.14217653 0,27.689455 -17.46676,50.719092 -44.41571,58.561482 -8.89584,2.58876 -22.36541,2.20398 -32.14622,-0.91832 C 171.81713,112.76659 157.50375,102.00053 134.07088,77.359675 107.21646,49.120865 93.591999,35.986494 85.629516,30.660908 66.935771,18.157751 48.312741,18.386971 34.374001,31.291779 c -9.19368,8.511729 -12.6499,16.436365 -12.6499,29.004529 0,12.341716 3.37426,20.273866 12.15822,28.58139 6.42073,6.072446 12.05345,8.795417 20.73835,10.025366 13.93052,1.972816 27.691959,-4.418809 46.895999,-21.781191 4.08518,-3.693415 5.8318,-4.637458 8.58012,-4.637458 7.09167,0 11.1543,4.185134 11.1543,11.490534 0,3.175341 -0.79089,4.358524 -6.72786,10.064681 -7.31204,7.02784 -21.088627,16.67978 -29.449373,20.6324 -10.093056,4.77163 -22.676186,6.83598 -33.538796,5.50234 z M 216.80593,97.615412 c 5.49246,-1.638011 11.17577,-5.354193 15.88051,-10.383935 7.35093,-7.858779 10.4247,-15.800703 10.4247,-26.935169 0,-11.82817 -3.91688,-20.991666 -12.32867,-28.842639 -5.85567,-5.465262 -12.27784,-8.628947 -19.57481,-9.64294 -16.56914,-2.302418 -32.21743,5.850477 -54.6418,28.468884 l -10.02503,10.111738 12.46266,12.205647 c 12.78953,12.525753 20.97453,18.788314 29.89098,22.870405 8.69986,3.98295 19.08007,4.781767 27.91146,2.148009 z"
       style="fill:#7814ff;fill-opacity:1;stroke-width:0.975052"
       inkscape:export-xdpi="96"
       inkscape:export-ydpi="96" />
  </g>
</svg>
